<?xml version="1.0" encoding="utf-8"?>
<!-- Generator: Adobe Illustrator 19.0.0, SVG Export Plug-In . SVG Version: 6.00 Build 0)  -->
<svg version="1.1" id="layer" xmlns="http://www.w3.org/2000/svg" xmlns:xlink="http://www.w3.org/1999/xlink" x="0px" y="0px"
	 viewBox="-153 -46 652 652" style="enable-background:new -153 -46 652 652;" xml:space="preserve">
<path d="M52.2,257.9c0-17.7-10.8-29.8-27.9-29.8h-43.8v93.1H0.5v-34.2H15l16.1,34.2h22.4l-18.1-36.6
	C46.6,280.4,52.2,270.4,52.2,257.9z M31.4,260.8c0,6-3.7,9.2-9.7,9.2H0.5v-24.3h21.2c6,0,9.7,3.2,9.7,9.2L31.4,260.8z M353.2,290.8
	h-0.4l-8.9-18.7l-25.3-44h-22v93.1h18.9v-62.7h0.4l8.9,18.7l25.3,44h22v-93.1h-18.9V290.8z M193.6,228.1l-20.1,0v0v16.1l19.1,63.8
	v13.2h20.1v-16.1l-19.1-63.8V228.1z M250.7,228.1l-20.1,0v0v16.1l19.1,63.8v13.2h20.1v-16.1l-19.1-63.8V228.1z M132.6,228.1H99.1
	l-3.9,13.1l-19.1,63.8v16.1h20.1v-13.2l18.4-61.6h2.5l18.4,61.6v13.2h20.1v-16.1l-19.1-63.8L132.6,228.1z M461.8,274.1
	c-4.6-4.4-11.6-7.4-21-8.9l-9.2-1.5c-4-0.6-6.7-1.5-8.3-2.7c-1.6-1.2-2.4-3.3-2.4-6.3c0-5.6,4.4-8.5,13.2-8.5h28.3v-18H434
	c-10.4,0.2-18.6,2.8-24.5,7.7c-5.9,5-8.9,11.7-8.9,20c0,7.8,2.3,14.1,6.9,18.4c4.6,4.4,11.7,7.1,21.3,8.3l9.1,1.2
	c4,0.5,6.7,1.7,8.3,3.4c1.6,1.8,2.5,4.2,2.4,6.6c0.1,1.6-0.2,3.1-0.9,4.6c-0.6,1.4-1.6,2.7-2.8,3.7c-2.5,2-6.1,3.1-10.9,3.1
	c-9.1,0-16.8-3.6-23.2-10.8l-13.1,13.5c8.9,10.1,20.5,15.1,34.8,15.1c7.5,0,14-1.3,19.4-3.8c5.1-2.2,9.4-5.9,12.4-10.6
	c2.9-4.7,4.3-10.2,4.2-15.7C468.7,284.8,466.4,278.6,461.8,274.1z M-131.3,228.1v16.1h11.9v77h49c3.3,0,6.5-0.7,9.5-2.1
	c2.9-1.3,5.4-3.3,7.5-5.7c2.2-2.5,3.8-5.4,5-8.5c1.2-3.3,1.8-6.8,1.8-10.3c0-12.3-7.3-19.4-14.8-22.1v-0.7
	c6.3-2.3,11.2-8.8,11.2-19.8c0-7.2-2.1-13-6.4-17.3c-4.3-4.4-10.3-6.5-17.9-6.5L-131.3,228.1z M-99.3,245.2h20
	c1.1-0.1,2.3,0,3.4,0.4c1.1,0.4,2,1,2.9,1.8c0.8,0.8,1.4,1.8,1.8,2.9c0.4,1.1,0.5,2.2,0.4,3.4v4c0.1,1.1,0,2.3-0.4,3.4
	c-0.4,1.1-1,2.1-1.8,2.9c-0.8,0.8-1.8,1.4-2.9,1.8c-1.1,0.4-2.2,0.5-3.4,0.4h-20V245.2z M-67.5,295.8c0.1,1.1-0.1,2.3-0.5,3.3
	c-0.4,1.1-1,2-1.8,2.9c-1.7,1.5-4,2.3-6.3,2.2h-23.2v-21.3h23.2c2.3-0.1,4.6,0.7,6.3,2.2c0.8,0.8,1.4,1.8,1.8,2.9
	c0.4,1.1,0.6,2.2,0.5,3.3L-67.5,295.8z"/>
</svg>
